<?xml version="1.0" standalone="no"?>
<!DOCTYPE svg PUBLIC "-//W3C//DTD SVG 20010904//EN"
 "http://www.w3.org/TR/2001/REC-SVG-20010904/DTD/svg10.dtd">
<svg version="1.0" xmlns="http://www.w3.org/2000/svg"
 width="558.000000pt" height="562.000000pt" viewBox="0 0 558.000000 562.000000"
 preserveAspectRatio="xMidYMid meet">

<g transform="translate(0.000000,562.000000) scale(0.100000,-0.100000)"
fill="#000000" stroke="none">
<path d="M0 2810 l0 -2810 2790 0 2790 0 0 2810 0 2810 -2790 0 -2790 0 0
-2810z m2639 1454 c-17 -65 -34 -129 -36 -141 -3 -13 -9 -20 -14 -17 -5 3 -6
-2 -3 -11 8 -20 -25 -145 -37 -145 -5 0 -9 3 -9 8 1 15 38 168 46 186 4 12 4
17 -3 13 -5 -3 -16 -25 -23 -49 -7 -24 -17 -47 -22 -53 -4 -5 -8 -16 -8 -25 0
-9 -9 -35 -20 -58 -11 -22 -20 -46 -20 -52 0 -5 -4 -10 -10 -10 -5 0 -6 -7 -3
-17 4 -11 3 -14 -6 -9 -8 5 -11 3 -10 -5 5 -29 -64 -170 -73 -152 -3 4 -3 1 0
-7 2 -8 4 -19 3 -25 -1 -5 -3 -26 -4 -46 -4 -46 -26 -99 -41 -99 -16 0 -50
-39 -77 -90 -13 -25 -27 -46 -31 -48 -3 -2 -14 -28 -24 -58 -9 -30 -21 -54
-25 -54 -5 0 -9 -16 -9 -37 0 -43 -35 -95 -77 -112 -16 -6 -40 -29 -53 -51
-14 -22 -28 -40 -32 -40 -9 0 29 83 157 345 188 387 233 480 275 570 121 261
206 420 217 410 2 -1 -11 -55 -28 -121z m167 -69 c7 -27 23 -80 33 -117 11
-37 16 -70 12 -73 -5 -2 -14 14 -20 38 -28 104 -71 277 -70 284 1 9 23 -55 45
-132z m55 -242 c-8 -15 -10 -15 -11 -2 0 17 10 32 18 25 2 -3 -1 -13 -7 -23z
m-330 -104 c-5 -13 -10 -19 -10 -12 -1 15 10 45 15 40 3 -2 0 -15 -5 -28z
m605 -645 c11 -11 26 -31 32 -46 9 -23 9 -26 -3 -21 -9 3 -15 -1 -15 -8 0 -15
-19 23 -44 89 -18 49 -20 70 -3 31 7 -15 21 -35 33 -45z m-698 -36 c3 -13 -3
-18 -22 -18 -19 0 -24 5 -23 20 2 26 40 23 45 -2z m-411 -152 c-33 -22 -81
-101 -72 -117 3 -4 -1 -20 -10 -33 -9 -14 -14 -29 -11 -35 7 -10 -32 -27 -41
-18 -3 3 21 55 53 116 52 100 60 110 85 109 l28 -1 -32 -21z m-91 -248 c1 -10
-4 -18 -12 -18 -8 0 -14 2 -14 4 0 2 -3 12 -6 21 -5 13 -2 16 11 14 10 -2 19
-12 21 -21z m1588 7 c-4 -8 -8 -15 -10 -15 -2 0 -4 7 -4 15 0 8 4 15 10 15 5
0 7 -7 4 -15z m-1554 -5 c0 -5 -4 -10 -10 -10 -5 0 -10 5 -10 10 0 6 5 10 10
10 6 0 10 -4 10 -10z m1390 3 c-8 -3 -18 -12 -22 -18 -6 -10 -19 -11 -49 -4
-23 6 -44 7 -47 4 -3 -3 0 -5 6 -5 7 0 12 -8 12 -17 0 -10 7 -31 15 -47 21
-41 19 -61 -10 -76 -14 -8 -24 -19 -21 -26 2 -6 -2 -21 -11 -33 -18 -27 -10
-71 14 -71 14 0 14 -2 -1 -19 -10 -11 -15 -25 -11 -30 3 -6 1 -11 -4 -11 -6 0
-11 -6 -11 -14 0 -8 -9 -21 -20 -29 -11 -8 -23 -28 -26 -45 -6 -28 -4 -32 15
-32 26 0 28 -33 7 -85 -8 -19 -13 -35 -11 -35 2 0 -6 -24 -17 -52 -11 -29 -24
-76 -28 -103 -4 -28 -26 -87 -48 -132 -22 -45 -43 -92 -47 -105 -4 -13 -73
-156 -152 -318 -80 -162 -149 -306 -154 -319 -5 -13 -11 -22 -14 -20 -4 4 44
201 64 264 16 50 13 -3 -4 -65 -17 -64 -19 -78 -6 -65 12 14 87 266 154 520
98 369 100 377 87 385 -6 4 -11 16 -10 26 5 47 -3 45 -29 -5 -26 -51 -28 -53
-33 -28 -3 14 0 28 6 31 6 3 1 8 -11 11 -16 5 -23 15 -24 34 l-1 26 -13 -30
c-18 -39 -18 -29 0 80 23 135 21 130 52 131 15 1 43 4 60 7 22 4 32 2 30 -6
-1 -7 4 -12 11 -11 6 1 24 2 38 3 24 1 25 4 22 44 -2 30 1 41 10 40 6 -2 12 3
12 11 0 8 7 16 15 20 8 3 15 18 15 33 0 24 10 72 31 153 8 30 34 39 104 39 39
0 63 -3 55 -6z m-190 -13 c-20 -13 -73 -13 -65 0 3 6 23 10 43 10 28 0 33 -3
22 -10z m-822 -44 c5 -23 -17 -66 -33 -66 -10 0 -35 61 -35 84 0 4 15 6 32 4
23 -2 34 -9 36 -22z m-210 -21 c-3 -3 -9 2 -12 12 -6 14 -5 15 5 6 7 -7 10
-15 7 -18z m879 -161 c-3 -3 -12 -4 -19 -1 -8 3 -5 6 6 6 11 1 17 -2 13 -5z
m51 -26 c9 -9 12 -9 12 0 0 7 5 12 11 12 5 0 7 -4 4 -10 -3 -5 -1 -10 6 -10
18 0 -1 -16 -27 -24 -17 -5 -22 -2 -26 19 -6 27 1 32 20 13z m-340 -65 c2 -12
-11 -74 -29 -137 -28 -102 -38 -124 -52 -113 -2 1 -11 -4 -20 -12 -15 -12 -16
-10 -10 19 4 24 3 31 -5 26 -7 -4 -12 -13 -12 -20 0 -8 -9 -24 -20 -37 -17
-21 -21 -22 -30 -9 -6 8 -8 31 -6 50 10 69 24 146 37 203 l13 58 66 -3 c58 -3
65 -5 68 -25z m-433 -64 c6 -19 12 -45 21 -99 6 -36 21 -93 31 -120 3 -8 5
-23 4 -32 -1 -9 7 -19 17 -22 20 -7 45 -72 35 -90 -3 -6 -3 -8 2 -4 5 5 26
-45 47 -109 22 -64 47 -128 57 -142 21 -30 30 -58 65 -191 51 -195 67 -253 91
-327 14 -41 25 -81 25 -87 0 -15 -301 593 -366 739 -52 118 -53 120 -31 123
17 2 26 13 34 43 6 22 6 42 2 45 -5 3 -6 16 -3 28 3 14 -1 29 -10 39 -11 11
-12 17 -4 19 8 3 9 11 3 24 -5 10 -9 24 -10 30 0 6 -13 25 -28 43 -27 33 -31
49 -21 87 7 25 32 27 39 3z m564 -635 c-13 -69 -34 -112 -24 -49 8 48 27 116
32 112 1 -2 -2 -30 -8 -63z"/>
<path d="M2350 3685 c0 -8 5 -15 10 -15 6 0 10 7 10 15 0 8 -4 15 -10 15 -5 0
-10 -7 -10 -15z"/>
<path d="M2327 3653 c-11 -11 -8 -30 6 -36 7 -3 12 4 12 19 0 24 -6 30 -18 17z"/>
<path d="M2382 2045 c0 -16 2 -22 5 -12 2 9 2 23 0 30 -3 6 -5 -1 -5 -18z"/>
</g>
</svg>
