<svg width="50" height="51" viewBox="0 0 50 51" fill="none" xmlns="http://www.w3.org/2000/svg">
<path d="M37.4669 0.0419312L12.7368 0.0419312C11.3313 0.0419312 9.98345 0.549631 8.98963 1.45334C7.99582 2.35706 7.4375 3.58275 7.4375 4.86079V20.9237C7.4375 22.2017 7.99582 23.4274 8.98963 24.3311C9.98345 25.2348 11.3313 25.7425 12.7368 25.7425H37.4669C38.8724 25.7425 40.2203 25.2348 41.2141 24.3311C42.2079 23.4274 42.7663 22.2017 42.7663 20.9237V4.86079C42.7663 3.58275 42.2079 2.35706 41.2141 1.45334C40.2203 0.549631 38.8724 0.0419312 37.4669 0.0419312ZM36.2834 3.25451L25.1019 10.8844L13.9203 3.25451H36.2834ZM37.4669 22.53H12.7368C12.2683 22.53 11.819 22.3607 11.4878 22.0595C11.1565 21.7582 10.9704 21.3497 10.9704 20.9237V5.26237L24.042 14.1773C24.3478 14.3858 24.7197 14.4985 25.1019 14.4985C25.4841 14.4985 25.856 14.3858 26.1617 14.1773L39.2334 5.26237V20.9237C39.2334 21.3497 39.0473 21.7582 38.716 22.0595C38.3847 22.3607 37.9354 22.53 37.4669 22.53Z" fill="#65FBDC"/>
</svg>
