<svg width="29" height="29" viewBox="0 0 29 29" fill="none" xmlns="http://www.w3.org/2000/svg">
<path d="M27.4286 0.428711H1.14286C0.510714 0.428711 0 0.939425 0 1.57157V27.8573C0 28.4894 0.510714 29.0001 1.14286 29.0001H14C14.1571 29.0001 14.2857 28.8716 14.2857 28.7144V26.7144C14.2857 26.5573 14.1571 26.4287 14 26.4287H2.57143V3.00014H26V14.4287C26 14.5859 26.1286 14.7144 26.2857 14.7144H28.2857C28.4429 14.7144 28.5714 14.5859 28.5714 14.4287V1.57157C28.5714 0.939425 28.0607 0.428711 27.4286 0.428711ZM19.3321 17.8359L21.1964 15.9716C21.2342 15.9336 21.2606 15.8858 21.2725 15.8336C21.2845 15.7814 21.2815 15.727 21.264 15.6763C21.2465 15.6257 21.2152 15.5811 21.1736 15.5474C21.132 15.5137 21.0817 15.4924 21.0286 15.4859L14.6214 14.7359C14.4393 14.7144 14.2821 14.868 14.3036 15.0537L15.0536 21.4609C15.0821 21.6966 15.3714 21.7966 15.5393 21.6287L17.4107 19.7573L26.5607 28.9073C26.6714 29.018 26.8536 29.018 26.9643 28.9073L28.4786 27.393C28.5893 27.2823 28.5893 27.1001 28.4786 26.9894L19.3321 17.8359Z" fill="#727E98"/>
</svg>
